# xmcd
#
# Track frame offsets:
#	151
#	16871
#	29847
#	42581
#	56353
#	66382
#	81647
#	104936
#	118367
#	134979
#	146074
#	162800
#	172638
#
# Disc length: 2314 seconds
#
# Revision: 0
# Processed by: cddbd v1.4PL0 Copyright (c) Steve Scherf et al.
# Submitted via: dBpowerAMP V4.0
#
DISCID=cc09080d
DTITLE=ISOP - I.S.O.P
DYEAR=2001
DGENRE=Western
TTITLE0=Cool Water
TTITLE1=Red River Valley
TTITLE2=He's a Trier
TTITLE3=Tumblin' Tumbleweeds
TTITLE4=Paper Moon
TTITLE5=Home on the Range
TTITLE6=El Paso
TTITLE7=Don't Fence Me In
TTITLE8=Streets of Laredo
TTITLE9=I Believe in Him
TTITLE10=Cowboy's Dream
TTITLE11=Deep in the Heart of Texas
TTITLE12=blank
EXTD=ISOP Western Music Association Promotional Album 
EXTT0=
EXTT1=
EXTT2=
EXTT3=
EXTT4=
EXTT5=
EXTT6=
EXTT7=
EXTT8=
EXTT9=
EXTT10=
EXTT11=
EXTT12=
PLAYORDER=
